# xmcd
# Copyright (C) 1995-1998 Ti Kan
#
# Track frame offsets:
#       150
#       14396
#       31686
#       50438
#       62413
#
# Disc length: 1026 seconds
#
# Revision: 0
# Processed by: cddbd v1.5.2PL0 Copyright (c) Steve Scherf et al.
# Submitted via: CD-Import v1.0
#
DISCID=31040005
DTITLE=Klennn - Demo 08
DYEAR=08
DGENRE=
TTITLE0=Oos Psychose
TTITLE1=Nonsense
TTITLE2=Ms. Love
TTITLE3=Fall 21 Interlude
TTITLE4=Get Away
EXTD=
EXTT0=
EXTT1=
EXTT2=
EXTT3=
EXTT4=
PLAYORDER=
